<?xml version="1.0" encoding="UTF-8"?>
<!-- Generator: Adobe Illustrator 22.1.0, SVG Export Plug-In . SVG Version: 6.00 Build 0)  -->
<svg version="1.1" id="Capa_1" xmlns="http://www.w3.org/2000/svg" xmlns:xlink="http://www.w3.org/1999/xlink" x="0px" y="0px" viewBox="0 0 264.5 161.8" style="enable-background:new 0 0 264.5 161.8;" xml:space="preserve">
<style type="text/css">
	.st0{opacity:0.3;}
	.st1{fill:#020203;}
</style>
<g class="st0">
	<path class="st1" d="M175.8,83.6c0.7,2.5,1.3,5.3,3,6.8C178.1,87.8,177.6,85.1,175.8,83.6"/>
	<path class="st1" d="M136.2,102.6c0.2,4-0.1,7.8-0.6,11.3C138.2,112.6,137.6,102.5,136.2,102.6"/>
	<path class="st1" d="M132.8,99.4c1.6,3.4-0.6,10.7,2.1,14.6C135.1,109.8,136,102.1,132.8,99.4"/>
	<path class="st1" d="M129.8,101.8C129.4,111.9,133.3,103.9,129.8,101.8"/>
	<path class="st1" d="M120.3,92.8c0.6-1.5,1.4-2.9,2-4.4C119.9,88.2,118.4,92,120.3,92.8"/>
	<path class="st1" d="M118.8,93.7c0.7,2.5-1.4,2.8-1.1,5C119.8,98.7,120.5,94.3,118.8,93.7"/>
	<path class="st1" d="M156.3,60.7c-3.3-1-4.5-4.4-8.4-4.8C150.3,57.4,153.8,61.8,156.3,60.7"/>
	<path class="st1" d="M156.2,67.8c-1.9-3.1-4.8-5.1-8.5-6.3C149.7,64.5,153.4,65.7,156.2,67.8"/>
	<path class="st1" d="M154.2,72.9c-3.2-1.9-4.4-6-8.6-7C147.7,68.6,151.3,73.7,154.2,72.9"/>
	<path class="st1" d="M140.1,56.6c0.2,2.8-3.1,6.4-1.7,7.9C140.1,63.4,141.5,55.8,140.1,56.6"/>
	<path class="st1" d="M141.3,88.1c-0.3-3.5-0.1-8.3-2.5-10.3C139.3,81.5,138.7,86.5,141.3,88.1"/>
	<path class="st1" d="M135.9,64c0-2.2,3.5-5.2,0.9-7.1C138.4,60.1,134,62.5,135.9,64"/>
	<path class="st1" d="M137.1,41.4c-2,0.6-4.8,0.4-4.5,2.5c4.3-1.7,6.1,3.2,8.8,0.6C139.8,43.7,136.5,44.6,137.1,41.4"/>
	<path class="st1" d="M137.9,85.6c-1.7-3.3-0.1-9-2.6-11.7C136.5,77.4,134.3,84.6,137.9,85.6"/>
	<path class="st1" d="M133.7,74c-1,0.1-0.8-1.2-1.7-1.2C133.4,79.3,134.9,87.5,133.7,74"/>
	<path class="st1" d="M129,83.6c-0.7-2.4-1.5-2.3-1.9-4C124,67,126.2,83.3,129,83.6"/>
	<path class="st1" d="M119.9,61.9c-0.6,1.2-2.6,4.5-0.3,5.6C119,65.5,121.4,62.4,119.9,61.9"/>
	<path class="st1" d="M121.6,54.7c-0.5,2.6-2.3,0.6-4.6,1.1c-0.5,1.8-5,4.1-2.6,5.8c0.8-2.3,2.1-4.2,5.1-4.7c-0.3,1.4-3.9,3.6-2,4.4   C118,59,123.7,56.9,121.6,54.7"/>
	<path class="st1" d="M111.4,64.1c-0.2-1.9,2.8-4.9,1.1-5.7C112.3,60.1,109,62.7,111.4,64.1"/>
	<g>
		<path class="st1" d="M182.7,89.3c-1.6-12.6-11.7-16.9-16.7-26.6c2.9,0.2,3.7-1.1,5.4-1.9c-1.2-10.2-6.8-15.7-16.6-16.8    c-3.6-14.3-25.9,1.3-33.4-8.9c0,0.9-1.4,0.4-2.3,0.2c-0.5-0.1-0.8-0.1-0.6,0.3c0.1,0.2,0.4,0.6,0.9,1.1c1.3,1.4,3.8,3.9,4.2,4.4    c2.9,3.9,8,7.2,9.8,12c1.9-1.1-1.4-3-1.2-4.8c2.2,0.7,3.1,2.8,5.1,3.7c-2-0.3-1.6,2.8,0.4,4.2c2.3-0.7-0.9-1.4-0.3-2.8    c1.1-0.1,2.7,2.7,2.4-0.2c6.3,3.1,5.6,11.7,0.5,14.7c-3.3,2-16.6,4.3-20.3,3.9c-5.4-0.5-11.2-5.9-11.2-9.5    c0-6.2,8.2-5.7,12.6-10.3c-3.8,2-15.4,3.8-20.8,6.8c-2.3-0.2,1.1-1.2,0.6-2.2c-2.2,0.4-7.1,4.3-7.2,8.4c0.5,1.7,1.6-1.3,1.4-2.2    c2.2,1.2-1.9,5.5-3.6,3.8c0.4-3.1,4.1-4.9,0.9-7.1c3.3-4.2,8-3.6,8.1-7.1c3.9,1.4,10.8-2.5,14.1-2.7c0,0.1,4,0.7,3.3,1.1    c5.3-2.9,3.8-9.6-0.1-14c-0.7-0.7-1.3-1.4-2.1-2c-1.2,3.1,3.2,12.3-3.8,10.2c0-0.8,1.4-0.7,2.3-0.9c0.3-3.6-2.8-6.2-0.8-9.1    C100,21.5,88.3,18.7,84.3,18.3c-0.1,0,0,0,0-0.4c0.8-0.7,0.5-2.4,0.6-2.3c14.2,3.2,19.3,5.4,28.1,12.4c3.3,2.7,6.3,6.3,6.4,6.5    c-0.1-0.3-3.9-7.7-13.5-13.2c-10.1-5.8-23.9-6.9-23.9-6.9l-0.1,2l-0.3,2.4c0.4,0.1,1.1,0.3,1.6,0.4c4.6,0.9,13.3,2.1,26.3,15.5    c-1.3,4.2,1.7,7.7,0.3,11.9c3.1,2,6.4-1.4,7.7-2.8c2.6,8-8.5,4.1-13.8,5.4c-8.3,2.1-13.1,9.6-15.2,16.1c0.2,2,2,2.4,3.5,3.2    c-3.9,4.9-7,14.7-2.9,20c3-0.4,0.3-5,4.3-4.6c-4.1,8.5-3,23.6,1.4,32.9c0.7,0.6,1.5,0.9,2.5,1.2c3.1-0.3-0.6-5.7,3.5-5.2    c-1.4,7.9,2.9,15.4,6,22.7c6.1,6.1,10.8,4.6,14.8,5.7c4.1,3.8,9.8,5.9,17.2,6.2c2.2-1,0.1-5.2,2.6-5.8c3.4,4.8,13.1,4.4,13.1,4.4    s4-9.2,6.9-7.2c5.3-4.2,7.6-12,6.8-16.6c3.6-0.7,3.6,2.3,7.3,1.4c2.9-6.7,4.1-17.6-0.6-24.6c1.3-2.3,3.5,0.8,5.6,0.2    c1-0.4,1.1-1.3,2.2-1.6C181.5,94.6,183,91.9,182.7,89.3 M165.3,62.8c-3-3.2-6.7-5.6-10.3-8.2c1.8-1.8,4.4,1.9,5.8,3    c-2.7-6.2,4.7-0.9,5.9,3.7C164.3,59.8,163.9,60.1,165.3,62.8 M126.7,40.9c7.4,0.7,19.8-5.4,24.7,0.6    C147.6,49.6,130.9,47.1,126.7,40.9 M140.2,48.8c10.9-6.7,25.3-3.5,27.7,7.4C162.1,49.7,145.3,53.6,140.2,48.8 M142.8,69    c0-5,6.9-9.5,0.8-16.9c16.3,1.8,22.2,14.7,26.5,29.2c0.4,1.1-0.5,1.4-1.4,1.5C162.2,78.8,142.8,83.6,142.8,69 M150.1,97.8    c-1-4.4,5.6-13.3,10.9-11.5c0.2-0.9,1.3-1.2,1.4-2.2c8.2,4.5,7.2,17.9,3.9,25.7C163.6,105.2,151.4,103.8,150.1,97.8 M146.9,131.9    c-15.1-9.4-2.5-19.5,2.9-29.8C162,108,156.4,127.4,146.9,131.9 M124,72.1c1.6-0.1,3.1-0.3,4.7-0.4c1.3,3.8,1.3,8.8,2.7,12.4    c0.9-4.2,0-8.2-1.9-11.8c0.7-1.7,4.9-0.7,7.1-1.3c0.7,0.7,1.2,1.8,1.1,3.4c1.7,0,0.1-2.5,0.5-3.5c5.6,3.8,8.6,10.2,16.2,11.9    c-1.8,6.7-5,12.4-12.1,15.2C135.9,89.8,121.2,87.3,124,72.1 M128.6,96.3c-0.5,3.6-6.5,8.1-9.8,6.5c-1.1,2-1,4.9-1.7,7.2    c-3-9.2,1-18.8,4-25.7C123,87,129.4,90.3,128.6,96.3 M122.4,125.7c-1.5,1.4-3.9-1-2.2,2.3c-2.2,0.3-2-1.9-4.1-1.7    c0.4-0.6,0.7-1.2,0.6-2.2c0.8,0.3,1.4,0.5,1.7,1.2c0.8-2.8-4.5-7.4-2.6-11.7c0.9,0,0.8,1.2,1,2c1.1-3.7,2.4-7.4,4.6-10.3    C126.2,111.5,125.7,119.7,122.4,125.7 M123,131.3c-1-0.3,0-4.7,0.2-6.3C125.2,126.1,124.2,130.4,123,131.3 M106.6,108.1    c1.2-2,0.9,4,1.3,5.5C106.6,115.6,106.9,109.6,106.6,108.1 M104.6,103.4c-2.2-1.5-0.2-5.3,0.2-7.1    C107,97.9,104.3,101.2,104.6,103.4 M113.6,124.4c-2.5,1.1-5-4.5-5.5-8C110.3,118.7,110.9,122.6,113.6,124.4 M109.5,105.8    c1.6,4.5,0.9,11.8,3.9,16.5C109.6,118.1,109,112.4,109.5,105.8 M109.7,98.7c-2.9-2.7-1.1-7.8-0.2-11.2    C113.3,89,108.1,94.5,109.7,98.7 M112.6,86.5c2.3-0.9,1.5,1.4,1.8,2.6c1.4-1.2,1.6-3.2,2.8-4.4c0.8,1.4-1.9,11.6-2.6,15    c-0.3,1.4-0.1,4.4-0.5,2.8c-1.1-3.7,0.3-8,0.4-12.7c-2.5,3.2-2.7,8-1.9,13.5C108,99.1,112.4,91.6,112.6,86.5 M115.8,122.1    c-2.7-1.2-2.8-5.2-3.2-8.9C115.7,114,114.1,119.8,115.8,122.1 M119.3,134.4c-2.1-0.8-2.6-3.4-3.6-5.3    C117.5,130.1,120.8,132.2,119.3,134.4 M90.3,77.2c0.9,0,0.8,1.2,1,2c2.8-2.5,3.1-6.8,6.4-9c-1.9-1.4-2.6,3.7-5.2,4    c0.4-4.1,4.6-5.3,6.4-8.3c2.5,0.5-0.7,2-0.5,2.8c1.9-0.8,2.3-2.7,3.6-3.8c-0.5-1-1,0.4-2.4,0.2c1.5-3.7,5.1-5.8,8.8-7.9    c0.5,1.3-2,5.9-4.1,7.4c0.7,2,1.6-0.8,3.1-0.3c-3.3,5.6-9,9.4-12.1,15.2c-2.4-1.2,2.1-2.8,1.1-5c-2.1,1.5-2.7,4.1-3.4,6.7    C90.6,81.5,90.5,79.3,90.3,77.2 M108.5,67.9c-1.7,3.3-5.5,5-7.2,8.4C99.8,73.5,105.4,67.3,108.5,67.9 M95.1,86.6    c1,0.6,0.4,5.5-0.2,7.1C92.7,92.3,94.8,88.4,95.1,86.6 M92.8,96.7c0.9-0.2,0.5-1.3,0.6-2.2c0.9,0,0.8,1.2,1,2    C94.2,100.6,93.7,107.9,92.8,96.7 M95.1,95.1c3.4,2.5,2.2,14,3.8,15.8C94.4,109,96.3,100.4,95.1,95.1 M101.1,108.6    c-3.3-0.1-3.4-6.7-2.4-8.9C102.5,101.1,98.8,105.9,101.1,108.6 M102.2,112c1.8,3.7,1.5,9.6,2.8,13.8    C102.1,123.1,102.5,115.2,102.2,112 M101.9,90.9c-2.2-5.8,5.1-10.2,7.4-14.7c0.7,4-5.6,8.5-6.8,13.3c4.9-5.3,8.2-11.8,12.7-17.3    c1.9-0.1,0.5,2.3,0.3,2.8c1.2,0,3.5-0.7,6.2-1.3c2.3,6.9-5.7,11.3-12.5,11c-2,2.2-3.9,4.5-5.7,6.8    C102.7,91.2,102.1,89.7,101.9,90.9 M107.1,131.3c2.4,2,4.2,4.7,6.9,6.4c-3.5-7-9.2-11.7-9.1-22.4c3,8,5.3,16.8,11.5,21.5    c0.1-4.2-6.8-7.6-7.5-13.4c3.8,3.9,7,8.3,9.9,13.2c2.2,0.3,1.4-1.6,2.2-2.3C122.5,141.1,107.2,139.2,107.1,131.3 M122.1,139    c1.9-2.2,2.8,3.1,5,3C124.8,144.8,124.2,139.2,122.1,139 M123.4,136.1c3.7,2.9,6.7,6.6,11.9,8.1    C131.4,144.5,125,140.8,123.4,136.1 M125.8,136.6c3.5-0.6,6.8,5.6,11.7,6C132.5,144.8,128.6,139.3,125.8,136.6 M138.7,138.3    c-8.6-1.9-7.6-2-13.3-6.6c0.6-2.2,2.2,0.6,3.2,0.4c-3.6-3.8-1.8-10.1,1.2-12.8C135.7,123,143.7,129.8,138.7,138.3 M133.1,119.8    c-1.8-7.3-9.2-8.3-8.6-16.1c2.9-3.1,7.5-4.9,8.7-9.2c4.7-0.4,4.7,4.2,6.2,7.2c1.3-0.8,0.8-2.9,3.7-2.4c2.8-0.4,2.7,2.2,4.2,3.1    C144,109.2,140.4,115.9,133.1,119.8 M151.9,144.1c-4.3-1.1-8.5-2.3-10.8-5.4c1-2.1,0.2-5.5,3.4-5.9c-0.2,1.7,1.6,1.4,1.1,3.4    c1-0.1,2.1-0.2,3.1-0.3c0.8-0.4,1.1-5.4,2.2-1.6c1.7-0.3,0-3,0.4-4.2C157.9,132.4,155.4,140.5,151.9,144.1 M160,136.3    c-0.4-4.4-6.3-3-6.2-7.9c2-0.7,1.2-3.4,3.6-3.8c-0.1,3.1,1,5,2.2,6.9c0-5.4-3.3-9.9-0.7-16.1c3.1,1.3,5.3,3.6,7.6,5.7    C166.2,127.5,164.7,133.1,160,136.3 M174.5,121c-6.3-0.5-11.8-1.8-11.9-8.8c2.3,2.9,0.3,0.8,3.1-0.3c0.1,1.2,0.2,2.3,0.3,3.5    c1-6.8,5-11.5,4.6-19.4C176.8,102.3,176,112.6,174.5,121 M180.8,94.4c-6.5,7.3-14.4-6-14.6-12c2.8-1,1,3.1,3.4,2.5    c4.3-4.6,0-7.2-0.4-13.3C175.9,76.1,180.1,83.3,180.8,94.4"/>
	</g>
</g>
<g>
	<path class="st1" d="M39.9,95c-0.5,0.3-1.1,0.6-1.7,0.9c-1.3,0.5-2.7,0.8-4.1,0.8c-1.4,0-2.8-0.3-4-0.8c-1.3-0.5-2.4-1.3-3.3-2.2   c-1-1-1.7-2-2.2-3.3s-0.8-2.6-0.8-4c0-1.4,0.3-2.8,0.8-4.1c0.5-1.2,1.3-2.4,2.2-3.3c1-1,2-1.7,3.3-2.2c1.3-0.6,2.6-0.8,4-0.8   c1.4,0,2.8,0.3,4.1,0.8c0.1,0.1,0.3,0.1,0.4,0.2v3.8c-1.3-1-2.8-1.6-4.5-1.6c-1.9,0-3.7,0.7-5,2.1c-1.3,1.3-2.1,3.1-2.1,5   c0,1.9,0.8,3.7,2.1,5c1.3,1.3,3.1,2.1,5,2.1c1.9,0,3.7-0.8,5-2.1c0.3-0.3,0.5-0.5,0.7-0.8V95z"/>
	<path class="st1" d="M34.2,97c-1.4,0-2.8-0.3-4.1-0.8c-1.3-0.5-2.4-1.3-3.4-2.3c-1-1-1.8-2.1-2.3-3.4c-0.6-1.3-0.8-2.7-0.8-4.1   c0-1.4,0.3-2.8,0.8-4.2c0.6-1.3,1.3-2.4,2.3-3.4c1-1,2.2-1.8,3.4-2.3c1.2-0.6,2.6-0.8,4.1-0.8c1.5,0,2.9,0.3,4.2,0.8   c0.1,0,0.2,0.1,0.2,0.1c0.1,0,0.1,0.1,0.2,0.1l0.2,0.1v4.6L38.5,81c-1.2-1-2.7-1.5-4.3-1.5c-1.8,0-3.6,0.7-4.8,2   c-1.3,1.3-2,3-2,4.8c0,1.8,0.7,3.5,2,4.8c1.3,1.3,3,2,4.8,2c1.8,0,3.5-0.7,4.8-2c0.2-0.2,0.5-0.5,0.7-0.8l0.5-0.6v5.4L40,95.3   c-0.6,0.4-1.2,0.7-1.7,0.9C37,96.7,35.6,97,34.2,97 M34.2,76.3c-1.4,0-2.7,0.3-3.9,0.8c-1.2,0.5-2.3,1.2-3.2,2.1   c-0.9,0.9-1.7,2-2.2,3.2c-0.5,1.3-0.8,2.6-0.8,3.9c0,1.4,0.3,2.7,0.8,3.9c0.5,1.2,1.2,2.3,2.2,3.2s2,1.7,3.2,2.2   c2.5,1,5.3,1.1,7.9,0c0.5-0.2,1-0.5,1.5-0.8l0-3.5c-0.1,0.1-0.1,0.1-0.2,0.2c-1.4,1.4-3.3,2.2-5.2,2.2c-2,0-3.8-0.8-5.2-2.2   c-1.4-1.4-2.2-3.3-2.2-5.2c0-2,0.8-3.8,2.2-5.2c1.4-1.4,3.2-2.2,5.2-2.2c1.5,0,3,0.4,4.2,1.3v-3.1c0,0,0,0,0,0   c-0.1,0-0.1-0.1-0.2-0.1C36.9,76.5,35.6,76.3,34.2,76.3"/>
	<polygon class="st1" points="51.3,84.4 58.9,84.4 58.9,87.4 51.3,87.4 51.3,93.8 60.5,93.8 60.5,96.7 51.3,96.7 48.1,96.7 48.1,76    51.3,76 60.5,76 60.5,78.9 51.3,78.9  "/>
	<path class="st1" d="M60.8,97h-13l0-21.4h13v3.5h-9.2l0,5h7.6v3.5h-7.6v5.9h9.2V97z M48.4,96.4h11.9v-2.4H51l0-7h7.6v-2.4H51v-6.1   h9.2v-2.3H48.4L48.4,96.4z"/>
	<path class="st1" d="M83.4,96.7h-3.7l-5.2-7h-2.4v7h-3.2V76h2.7H75c2.7,0,4.3,1.1,5.2,2.1c1.1,1.2,1.7,2.9,1.7,4.8   c0,1.9-0.6,3.6-1.7,4.8c-0.5,0.6-1.3,1.2-2.4,1.6L83.4,96.7z M75,86.8c1.3,0,2.4-0.4,3-1.1c0.8-0.8,0.9-2,0.9-2.8   c0-0.8-0.1-2-0.9-2.9c-0.6-0.7-1.7-1.1-3-1.1h-2.9v7.9H75z"/>
	<path class="st1" d="M83.9,97h-4.4l-5.2-7h-1.9l0,7h-3.8l0-21.4H75c2.9,0,4.5,1.2,5.4,2.2c1.1,1.3,1.8,3,1.8,5c0,2-0.6,3.7-1.8,5   c-0.4,0.5-1.1,1.1-2.2,1.5L83.9,97z M79.8,96.4h2.9l-5.5-7.4l0.4-0.1c1.1-0.4,1.9-1,2.3-1.5c1-1.1,1.6-2.8,1.6-4.6   c0-1.9-0.6-3.5-1.6-4.6c-0.8-0.9-2.3-2-5-2h-5.9l0,20.2h2.7v-7h2.8L79.8,96.4z M75,87.1h-3.2l0-8.5H75c1.4,0,2.5,0.4,3.2,1.2   c0.7,0.7,1,1.7,1,3c0,1.3-0.3,2.3-1,3C77.5,86.7,76.4,87.1,75,87.1 M72.4,86.5H75c1.2,0,2.2-0.3,2.8-1c0.6-0.6,0.8-1.5,0.8-2.6   c0-1.2-0.3-2.1-0.8-2.7c-0.6-0.7-1.5-1-2.8-1h-2.6V86.5z"/>
	<polygon class="st1" points="97,89.6 102.5,76 106,76 97.1,97.7 87.6,76 91.2,76  "/>
	<path class="st1" d="M97.1,98.4l-10-22.7h4.2L97,88.9l5.3-13.2h4.2L97.1,98.4z M88,76.3l9.1,20.7l8.5-20.7h-2.9L97,90.4L91,76.3H88   z"/>
	<polygon class="st1" points="116.6,84.4 124.2,84.4 124.2,87.4 116.6,87.4 116.6,93.8 125.8,93.8 125.8,96.7 116.6,96.7    113.4,96.7 113.4,76 116.6,76 125.8,76 125.8,78.9 116.6,78.9  "/>
	<path class="st1" d="M126.1,97h-13l0-21.4h13v3.5h-9.2v5h7.6v3.5h-7.6l0,5.9h9.2V97z M113.7,96.4h11.9v-2.4h-9.2v-7h7.6v-2.4h-7.6   l0-6.1h9.2v-2.3h-11.9L113.7,96.4z"/>
	<path class="st1" d="M149.4,95c-0.5,0.3-1.1,0.6-1.7,0.9c-1.3,0.5-2.7,0.8-4.1,0.8c-1.4,0-2.8-0.3-4-0.8c-1.3-0.5-2.4-1.3-3.3-2.2   c-1-1-1.7-2-2.2-3.3c-0.5-1.3-0.8-2.6-0.8-4c0-1.4,0.3-2.8,0.8-4.1c0.5-1.2,1.3-2.4,2.2-3.3c1-1,2-1.7,3.3-2.2   c1.3-0.6,2.6-0.8,4-0.8c1.4,0,2.8,0.3,4.1,0.8c0.1,0.1,0.3,0.1,0.4,0.2v3.8c-1.3-1-2.8-1.6-4.5-1.6c-1.9,0-3.7,0.7-5,2.1   c-1.3,1.3-2.1,3.1-2.1,5c0,1.9,0.8,3.7,2.1,5c1.3,1.3,3.1,2.1,5,2.1c1.9,0,3.7-0.8,5-2.1c0.3-0.3,0.5-0.5,0.7-0.8L149.4,95z"/>
	<path class="st1" d="M143.6,97c-1.4,0-2.8-0.3-4.1-0.8c-1.3-0.5-2.4-1.3-3.4-2.3c-1-1-1.8-2.1-2.3-3.4c-0.6-1.3-0.8-2.7-0.8-4.1   c0-1.4,0.3-2.8,0.8-4.2c0.6-1.3,1.3-2.4,2.3-3.4c1-1,2.2-1.8,3.4-2.3c1.2-0.6,2.6-0.8,4.1-0.8c1.5,0,2.9,0.3,4.2,0.8   c0.1,0,0.2,0.1,0.2,0.1c0.1,0,0.1,0.1,0.2,0.1l0.2,0.1v4.6L148,81c-1.2-1-2.7-1.5-4.3-1.5c-1.8,0-3.6,0.7-4.8,2c-1.3,1.3-2,3-2,4.8   c0,1.8,0.7,3.5,2,4.8c1.3,1.3,3,2,4.8,2c1.8,0,3.5-0.7,4.8-2c0.2-0.2,0.5-0.5,0.7-0.8l0.5-0.6v5.4l-0.1,0.1   c-0.6,0.4-1.2,0.7-1.7,0.9C146.5,96.7,145.1,97,143.6,97 M143.6,76.3c-1.4,0-2.7,0.3-3.9,0.8c-1.2,0.5-2.3,1.2-3.2,2.1   c-0.9,0.9-1.7,2-2.2,3.2c-0.5,1.3-0.8,2.6-0.8,3.9c0,1.4,0.3,2.7,0.8,3.9c0.5,1.2,1.2,2.3,2.2,3.2c0.9,0.9,2,1.7,3.2,2.2   c2.5,1,5.3,1.1,7.9,0c0.5-0.2,1-0.5,1.5-0.8v-3.5c-0.1,0.1-0.1,0.1-0.2,0.2c-1.4,1.4-3.3,2.2-5.2,2.2c-2,0-3.8-0.8-5.2-2.2   c-1.4-1.4-2.2-3.3-2.2-5.2c0-2,0.8-3.8,2.2-5.2c1.4-1.4,3.2-2.2,5.2-2.2c1.5,0,3,0.4,4.2,1.3v-3.1c0,0,0,0,0,0   c-0.1,0-0.1-0.1-0.2-0.1C146.4,76.5,145.1,76.3,143.6,76.3"/>
	<rect x="157.6" y="76" class="st1" width="3.2" height="20.8"/>
	<path class="st1" d="M161.1,97h-3.8l0-21.4h3.8L161.1,97z M157.8,96.4h2.7V76.3h-2.7L157.8,96.4z"/>
	<path class="st1" d="M180.5,92.6c-0.6,2-2.4,3.6-4.7,4.1c-0.4,0.1-0.8,0.1-1.3,0.1c-0.8,0-1.7-0.1-2.5-0.4   c-1.3-0.5-2.5-1.4-3.4-2.7l2.6-2c0.6,0.8,1.3,1.3,2,1.6c0.6,0.3,1.3,0.3,1.9,0.2c1.1-0.2,1.9-0.9,2.2-1.7c0.3-1-0.4-1.8-1-2.4   c-0.9-0.9-2.4-2.4-2.5-2.5l-2.5-2.4c-0.8-0.8-1.3-1.6-1.6-2.5c-0.3-0.9-0.3-1.8-0.1-2.6c0.3-0.9,0.8-1.7,1.5-2.3   c0.7-0.6,1.6-1,2.5-1.2c1-0.2,2.1-0.1,3.1,0.2c1.1,0.4,2,1.1,2.8,2.1l-2.5,2c-1.1-1.3-2.2-1.3-2.7-1.2c-0.7,0.1-1.3,0.6-1.5,1.2   c-0.1,0.4-0.1,1,0.8,1.9l3.5,3.3c0.5,0.5,1.1,1.1,1.6,1.5c0.9,0.8,1.5,1.7,1.8,2.7C180.7,90.6,180.8,91.6,180.5,92.6"/>
	<path class="st1" d="M174.5,97c-0.9,0-1.8-0.2-2.6-0.5c-1.4-0.6-2.6-1.5-3.6-2.8l-0.2-0.2l3-2.4l0.2,0.2c0.6,0.7,1.2,1.3,1.9,1.5   c0.6,0.2,1.2,0.3,1.7,0.2c1-0.2,1.7-0.8,2-1.5c0.2-0.6-0.1-1.3-0.9-2.1c-0.9-0.9-2.4-2.3-2.6-2.5l-2.5-2.4   c-0.8-0.8-1.4-1.7-1.7-2.6c-0.3-0.9-0.3-1.9-0.1-2.8c0.3-0.9,0.8-1.8,1.6-2.5c0.8-0.6,1.7-1.1,2.6-1.2c1-0.2,2.2-0.2,3.2,0.2   c1.1,0.4,2.1,1.2,3,2.2l0.2,0.2l-3,2.4l-0.2-0.2c-0.9-1.1-1.8-1.2-2.5-1.1c-0.6,0.1-1.1,0.5-1.3,1c-0.1,0.5,0.1,1,0.7,1.6l3.5,3.3   c0.5,0.5,1.1,1.1,1.6,1.5c0.9,0.8,1.6,1.8,1.9,2.8c0.3,1,0.4,2.1,0.1,3.1c-0.6,2.1-2.5,3.8-4.9,4.3C175.5,97,175,97,174.5,97    M169,93.7c0.9,1.1,1.9,1.9,3.1,2.3c0.7,0.3,1.5,0.4,2.4,0.4c0.5,0,0.8,0,1.2-0.1c2.1-0.4,3.9-1.9,4.5-3.9c0.3-0.9,0.2-1.8-0.1-2.7   c-0.3-0.9-0.9-1.8-1.7-2.6c-0.5-0.4-1.1-1-1.6-1.5l-3.5-3.3c-1-0.9-1-1.7-0.9-2.2c0.2-0.7,0.9-1.2,1.7-1.4c0.7-0.1,1.8-0.1,2.8,1.1   l2.1-1.7c-0.7-0.8-1.6-1.4-2.5-1.8c-1-0.3-2-0.4-2.9-0.2c-0.9,0.2-1.7,0.5-2.4,1.1c-0.7,0.6-1.2,1.4-1.4,2.2   c-0.2,0.8-0.2,1.6,0.1,2.5c0.3,0.9,0.8,1.7,1.5,2.4l2.5,2.4c0.1,0.1,1.6,1.6,2.5,2.5c0.9,0.9,1.3,1.8,1,2.6   c-0.3,0.9-1.3,1.7-2.4,1.9c-0.7,0.1-1.4,0.1-2.1-0.2c-0.7-0.3-1.4-0.8-2-1.5L169,93.7z"/>
	<polygon class="st1" points="201.4,78.9 195.7,78.9 195.7,96.7 192.4,96.7 192.4,78.9 186.7,78.9 186.7,76 201.4,76  "/>
	<path class="st1" d="M196,97h-3.9l0-17.9h-5.7v-3.5h15.3v3.5H196V97z M192.7,96.4h2.7l0-17.9h5.7v-2.3H187v2.3h5.7V96.4z"/>
	<path class="st1" d="M217.3,92.3h-7.4l-1.8,4.5h-3.6l9-21.7l9,21.7H219L217.3,92.3z M216.1,89.4l-2.5-6.3l-2.5,6.3H216.1z"/>
	<path class="st1" d="M223,97h-4.2l-1.8-4.4h-7l-1.8,4.4h-4.2l9.5-22.8L223,97z M219.2,96.4h2.9l-8.6-20.7L205,96.4h2.9l1.8-4.5h7.8   L219.2,96.4z M216.5,89.7h-5.9l2.9-7.4L216.5,89.7z M211.5,89.1h4.2l-2.1-5.2L211.5,89.1z"/>
	<path class="st1" d="M240.5,92.6c-0.6,2-2.4,3.6-4.7,4.1c-0.4,0.1-0.8,0.1-1.3,0.1c-0.8,0-1.7-0.1-2.5-0.4   c-1.3-0.5-2.5-1.4-3.4-2.7l2.6-2c0.6,0.8,1.3,1.3,2,1.6c0.6,0.3,1.3,0.3,1.9,0.2c1.1-0.2,1.9-0.9,2.2-1.7c0.3-1-0.4-1.8-1-2.4   c-0.9-0.9-2.4-2.4-2.5-2.5l-2.5-2.4c-0.8-0.8-1.3-1.6-1.6-2.5c-0.3-0.9-0.3-1.8-0.1-2.6c0.3-0.9,0.8-1.7,1.5-2.3   c0.7-0.6,1.6-1,2.5-1.2c1-0.2,2.1-0.1,3.1,0.2c1.1,0.4,2,1.1,2.8,2.1l-2.5,2c-1.1-1.3-2.2-1.3-2.7-1.2c-0.7,0.1-1.3,0.6-1.5,1.2   c-0.1,0.4-0.1,1,0.8,1.9l3.5,3.3c0.5,0.5,1.1,1.1,1.6,1.5c0.9,0.8,1.5,1.7,1.8,2.7C240.8,90.6,240.8,91.6,240.5,92.6"/>
	<path class="st1" d="M234.6,97c-0.9,0-1.8-0.2-2.6-0.5c-1.4-0.6-2.6-1.5-3.6-2.8l-0.2-0.2l3-2.4l0.2,0.2c0.6,0.7,1.2,1.3,1.9,1.5   c0.6,0.2,1.2,0.3,1.7,0.2c1-0.2,1.7-0.8,2-1.5c0.2-0.6-0.1-1.3-0.9-2.1c-0.9-0.9-2.4-2.3-2.6-2.5l-2.5-2.4   c-0.8-0.8-1.4-1.7-1.7-2.6c-0.3-0.9-0.3-1.9-0.1-2.8c0.3-0.9,0.8-1.8,1.6-2.5c0.8-0.6,1.7-1.1,2.6-1.2c1-0.2,2.2-0.2,3.2,0.2   c1.1,0.4,2.1,1.2,3,2.2l0.2,0.2l-3,2.4l-0.2-0.2c-0.9-1.1-1.8-1.2-2.5-1.1c-0.6,0.1-1.1,0.5-1.3,1c-0.1,0.5,0.1,1,0.7,1.6l3.5,3.3   c0.5,0.5,1.1,1.1,1.6,1.5c0.9,0.8,1.6,1.8,1.9,2.8c0.3,1,0.4,2.1,0.1,3.1c-0.6,2.1-2.5,3.8-4.9,4.3C235.5,97,235.1,97,234.6,97    M229.1,93.7c0.9,1.1,1.9,1.9,3.1,2.3c0.7,0.3,1.5,0.4,2.4,0.4c0.5,0,0.8,0,1.2-0.1c2.1-0.4,3.9-1.9,4.5-3.9   c0.3-0.9,0.2-1.8-0.1-2.7c-0.3-0.9-0.9-1.8-1.7-2.6c-0.5-0.4-1.1-1-1.6-1.5l-3.5-3.3c-1-0.9-1-1.7-0.9-2.2c0.2-0.7,0.9-1.2,1.7-1.4   c0.7-0.1,1.8-0.1,2.8,1.1l2.1-1.7c-0.7-0.8-1.6-1.4-2.5-1.8c-1-0.3-2-0.4-2.9-0.2c-0.9,0.2-1.7,0.5-2.4,1.1   c-0.7,0.6-1.2,1.4-1.4,2.2c-0.2,0.8-0.2,1.6,0.1,2.5c0.3,0.9,0.8,1.7,1.5,2.4l2.5,2.4c0.1,0.1,1.6,1.6,2.5,2.5   c0.9,0.9,1.3,1.8,1,2.6c-0.3,0.9-1.3,1.7-2.4,1.9c-0.7,0.1-1.4,0.1-2.1-0.2c-0.7-0.3-1.4-0.8-2-1.5L229.1,93.7z"/>
</g>
</svg>